<svg enable-background="new 0 0 500 500" viewBox="0 0 500 500" xmlns="http://www.w3.org/2000/svg"><path d="m239.48 282.51c-16.44 0-32.89 4.87-49.74 11.98-7.51-7.31-14.82-15.23-22.13-22.94 4.67-7.71 7.51-17.05 7.51-28.63 0-21.72-22.33-32.08-35.93-32.48 45.23-10.5 47.26-61.72-10.35-61.72-74.48 0-78.01 65.17-44.87 65.17 22.12 0 25.16-26.6 16.44-26.6-2.64 0-4.47 2.03-4.47 4.47 0 3.05 2.44 3.45 2.44 6.5 0 13.81-27.61 17.76-27.61-4.87 0-40.43 83.85-47.22 83.85-13.8 0 26.41-28.83 24.92-28.83 34.51 0 1.02.41 1.62 1.42 1.83 20.56 2.34 33.55 15.91 26.6 41.42-11.98-11.17-24.16-20.5-37.96-22.94 9.68-46 10.57-51.59 17.86-61.11 10.5-14.43-19.19.6-24.36 20.1 0 0-4.47 20.5-8.93 40.81-18.07 2.64-28.22 15.43-28.22 32.08 0 41.32 65.64 41.79 91.36 11.17 5.69 6.9 11.37 14.21 17.26 20.91-39.99 18.07-82.02 45.27-129.93 45.27-52.43 0-45.08-60.09-11.98-60.09 10.56 0 17.05 4.67 17.05 13.4 0 3.86-4.67 4.06-4.67 7.71 0 3.77 8.32 5.75 8.32-7.11 0-28.48-54.61-21.88-54.61 16.43 0 22.94 17.05 40.6 46.29 40.6 48.93 0 93.79-31.26 133.58-51.57 39.22 41.53 77.75 27.36 77.75-1.62.01-11.16-10.96-18.88-23.14-18.88zm-130.13 7.11c-37.51 0-39.91-44.3-9.95-50.75-2.04 9.02-4.49 21.39-7.72 29.03-.46 1.09-3.56 5.89-.41 5.89 6.11 0 17.26-6.02 19.49-16.04l4.06-19.08c13.8 2.64 25.58 12.59 36.75 24.97-7.71 17.04-25.17 25.98-42.22 25.98zm125.06 28.82c-14.82 0-27.81-8.32-40.4-19.9 78.86-36.39 70.93 19.9 40.4 19.9z"/><path d="m387.4 216.66c-3.65 0-6.5 2.84-6.5 6.29s2.44 5.89 2.44 9.34c0 6.9-12.18 26.39-19.29 34.11-1.62-27.41-3.86-51.77-10.15-76.33 23.75-8.32 45.88-14.62 62.53-14.62 15.83 0 26.59 5.68 26.59 11.98 0 5.89-6.9 6.29-6.9 10.96 0 1.83 1.62 3.05 3.45 3.05 10.54 0 13.79-33.9-22.33-33.9-18.07 0-39.79 8.73-64.15 18.47-11.52-43.5-57.95-48.1-77.67-32.2-7.17 1.37-16.23 8.29-24.04 31.19-6.29 18.54-15.14 48.14-18.2 68.46-13.53 18.43-32.08 26.83-32.76 2.4 13.4-1.42 28.22-12.38 28.22-26.19 0-19.74-45.48-9.52-45.48 30.05 0 22.17 25.67 28.81 49.27-.3-1.01 10.37.02 19.38 10.62 19.38 9.27 0 18.55-10.34 24.99-18.88-.78 4.3-1.32 8.08-1.32 10.25 0 10.1 13.72 12.62 21.81-1.18.95-1.59 2.03-3.89.17-3.89-1.92 0-4.01 5.07-6.76 5.07-7.14 0 4.1-33.63 5.24-36.01.86-1.89 3.7-5.07.68-5.07s-13.37 3.34-15.39 10.82c-.88 3.4-1.98 8.05-2.99 12.76-16.02 22.71-28.19 25.46-17.7-16.5 45.99-58.53 6.8-33.9 48.52-33.9 10.35 0 27.2-3.05 39.79-7.51 4.13 17.38 6.16 35.36 7.36 53.52-1.15.79-13.96 22.61-27.66 22.61-7.51 0-8.73-7.71-8.93-15.02 13.4-1.42 28.22-12.38 28.22-26.19 0-19.74-45.48-9.52-45.48 30.05 0 22.78 27.17 30.4 54-6.5.13-.17.21-2.19 1.01 18.27 1.62 3.86 6.7 6.7 9.95 6.7 6.91-.02 47.75-61.54 28.84-61.54zm-169.31 7.92c12.78 0 1.78 26.41-17.46 26.8 0-7.51 6.5-26.8 17.46-26.8zm35.93 2.64c3.87-14.55 6.28-23.51 12.49-41.94 1.59 3.84 4.22 7.14 7.77 9.77-6.45 12.56-14.64 25.15-20.26 32.17zm22.35-36.38c-4.51-4.05-6.48-9.37-6.29-15.28 8.62-21.17 23.24-20.02 6.29 15.28zm3.32 2.47c4.53-9.09 13.53-29.94 6.31-37.03 14.74-4.85 45.42-2.17 53.08 33.99-15.33 6.19-43.84 12.53-59.39 3.04zm48.84 31.27c12.78 0 1.78 26.41-17.46 26.8 0-7.51 6.49-26.8 17.46-26.8z"/><path d="m470.84 198.59c-25.72 0-28.72 29.64-18.47 29.64 2.64 0 4.87-1.83 4.87-4.47 0-3.65-4.67-4.06-4.67-6.5 0-17.73 32.89-23.86 32.89 2.44 0 53.9-76.54 81.53-76.54 36.14 27.44-2.91 38.13-35.93 17.46-35.93-36.4 0-54.96 65.98-2.03 65.98 56.47 0 99.66-87.3 46.49-87.3zm-44.26 25.99c12.78 0 1.78 26.41-17.46 26.8 0-7.51 6.49-26.8 17.46-26.8z"/><path d="m290.23 204.05c-7.28 0-12.25 14.54-3.89 14.54 7.04 0 12-14.54 3.89-14.54z"/></svg>