<?xml version="1.0" encoding="utf-8"?>
<!-- Generator: Adobe Illustrator 26.0.1, SVG Export Plug-In . SVG Version: 6.00 Build 0)  -->
<svg version="1.1" id="Layer_1" xmlns="http://www.w3.org/2000/svg" xmlns:xlink="http://www.w3.org/1999/xlink" x="0px" y="0px"
	 viewBox="0 0 500 500" style="enable-background:new 0 0 500 500;" xml:space="preserve">
<style type="text/css">
	.st0{fill:#E4C298;}
	.st1{fill:#E58C6F;}
	.st2{fill:#789072;}
	.st3{fill:#D6A163;}
</style>
<path class="st2" d="M341.5,185.7c12.1-0.2,18,0.3-0.8-1.7c-79.9-8.6-151.1,1.7-195.1-16.7c-30.5-3.6-67.9,2-97.4,9.2
	c-10.8,2.7-19.8,16.8-23.4,26.5c-3.3,4.4-6,12.7-1.8,16.1c7.7,1,26.1-1,26.9,6.8c0.2,2-3.4,2.4-7.1,2.8
	c2.4,21.8-32.7,40.2-38.5,48.4c-10.3,7.4,27.1,32.8,41,36.8c7.6,3.1,1.1,9.8,1.8,15.7c6.9-2.8,11.1,2.7,18-0.1
	c0.2,2.1,24.6,1.4,32.4,0.6c0,0,0.8-0.6,3-1.3c10.5-3.5,14.8,0.1,14.2-6.3l0.4,3.9c3.2-4.3,10.7-1,14.1-3.3l0.3,3.9
	c6.8-4.6,14.2-1.2,21.2-3.8l0.3,3.9c8.3-0.7,7.2,0.1,7.6,5.3c3.7,1.7,10.5-2.8,10.8,1.1l-0.3-3.9c50.6-3.6,28.7,13,131.8-3
	c3.6-0.1,7-4.2,3.3-8c3.6-0.1,7.1-0.2,10.7-0.3c7.1-0.2,3.4-6,10.6-6.1c57.3-11,120.8-1,171.9-4.7c-14.8-2.5-24.8-6.7-39.3-5.1
	c0.2-8.3-1.5-6-36.3-7.3c-33.7-1.2-24.7-13.2-42.8-13.3H390v-5.9c-54.3-7.4-47.1-2.3-47.3-11.5l-7.3,0.1
	c-7.6-13.9,33.6-12.6,50.9-14.3v-7.9c-9.2,0-7.3,1.2-7.3-3.9c39.7,0.1,86.8,0.8,47.6,0.2c0-2,0-4-3.6-4c16.1,0.2,32.9,2.5,47.8-1.1
	c3.7-1.8,0.2-7.9-10.8-10.1c-34.2-0.7-29.5,0.8-29.4-4.5c7.4,0,18.4,2.3,25.8,0.5c3.7-1.9-7.3-6.1-3.5-8c3.7,0.1,7.4,0.2,11.2-1.7
	c-17.8-0.3-44.5,3.8-44.4-8.6c-16.2,1.6-31.7-2.6-44.6-14C371.4,183.4,352.7,185.5,341.5,185.7z"/>
</svg>
