<svg enable-background="new 0 0 500 500" viewBox="0 0 500 500" xmlns="http://www.w3.org/2000/svg"><path d="m292.8 246.1c-.4 2 3.4 11.3 11.6 16.7 5 3.3 18 7.5 17.3 17.1-.6 8.5-19 25.6-31.7 15.9-7.8-5.9-5.9-16.1-16.8-35.1-5.8 9.4 7.5 28.8 1.9 35.2-3.2 3.7-17.7 3.9-23.2 4-27.6.5-15-20.1-11.3-31.9 9.4-29.5-5-42.9-2.7-58.1 1.3-8.6 6.3-10.1 13.2-10.1 23.8-.1 37.2-1.4 46.5 6.5 11 9.3 10.2 27.5-2.9 37.5-.8.6-1.7 1.3-1.9 2.3zm-23.8-14c8.8-.3 12.4-4 11.6-11.2-.7-6.7-4.8-9.6-12.1-8.1-1.6 6.3-1.5 12.6.5 19.3z" fill="#d4aa7b"/><path d="m181.1 236c2.1 1.6 18.9-1.6 18.6 7.2-.3 8-17 6.3-19.7 8.2-.9.6-4.3 16.5 2.2 19.3 10.1 4.4 16.5-3 22-5.5 9.5-4.5 20.3.2 22.6 9.4 1.5 6.1-1.4 16.9-6.3 20.8-3.7 2.9-8.8 3.1-13.5 3.2-60.4 1-72.7 5.8-63.2-21.1 13.5-38-16.5-65.4 7.2-74.3 9.6-3.6 18.4.4 51.6-2.3 12.7-1 20.1 1.9 19.2 15.7-1.4 22-32.9-.5-40.5 8.7-2.5 2.9-1.2 10-.2 10.7zm205.1 10.1c-.4 2 3.4 11.3 11.6 16.7 5 3.3 18 7.5 17.3 17.1-.6 8.5-19 25.6-31.7 15.9-7.8-5.9-5.9-16.1-16.8-35.1-5.8 9.4 7.5 28.8 1.9 35.2-3.2 3.7-17.7 3.9-23.2 4-27.6.5-15-20.1-11.3-31.9 9.4-29.5-5-42.9-2.7-58.1 1.3-8.6 6.3-10.1 13.2-10.1 23.8-.1 37.2-1.4 46.5 6.5 11 9.3 10.2 27.5-2.9 37.5-.8.6-1.7 1.3-1.9 2.3zm-23.8-14c8.8-.3 12.4-4 11.6-11.2-.7-6.7-4.8-9.6-12.1-8.1-1.7 6.3-1.6 12.6.5 19.3z" fill="#7ba06d"/><path d="m88.2 248.9c-14.2 18.5-5.4 39.3-16.2 46.2-5.5 3.5-22.8 2.4-28.5-4.9-6.5-8.5-.4-28.7-12.9-43.5-3.7 9.7-3.7 25.5.2 35.1 1.3 3.3 3.1 6.8 2.1 10.2-2.5 8.5-27.1 13.5-29.2.4-1.5-9.4 14.3-15 2.3-60.3-1.3-5-11-23.5 8.8-31 7.5-2.8 25.6-2.7 30.7 1.9 5.6 5 .8 9 16.2 41.7 1.4 2.9 3.3 3.6 5 .8 11.8-19.8 5.9-32.9 10.3-39 5.4-7.4 30.9-6.9 40.5-5.7 21.6 2.8-7.7 28.6 10.5 74.9 4.4 11.1 4.6 18-8 21.7-8.7 2.5-24.3 2.9-29.9-2.4-9.8-9.1 4.5-21.2-1.9-46.1zm366.3-17.1c12.9-4.5-9.6-31.9 17.5-28.1 56.6 8.1 1.9 30.4-2.1 52.8-2.3 13.1 10.9 28.6 3.8 37.7-5.1 6.5-49.5 14.7-41.7-10.6 1.8-5.7 17.4-27.6-1.9-46.3-5.3-5.1-19.9-12.8-18.2-22.6 1.4-8.3 15.5-13.1 23.5-14.9 20-4.6 4.4 23.5 19.1 32z" fill="#e8605c"/></svg>