<svg id="Layer_1" enable-background="new 0 0 511.964 511.964" height="512" viewBox="0 0 511.964 511.964" width="512" xmlns="http://www.w3.org/2000/svg"><g><g><g><g fill="#cce7f0"><path d="m157.881 124.482s-53.001-57.096-98.305-45.878-65.563 88.426-42.44 106.119c19.769 15.127 49.057-49.462 49.057-49.462s-2.427 37.828 17.669 39.581c18.929 1.651 32.687-41.682 32.687-41.682z"/><path d="m297.397 99.22s29.616-72.056 75.976-77.435 92.406 59.823 76.956 84.5c-13.21 21.098-63.286-29.12-63.286-29.12s15.537 34.575-2.668 43.264c-17.148 8.184-45.227-27.574-45.227-27.574z"/></g><g><path d="m283.606 232.325c-9.83 4.939-20.334 8.489-31.219 10.553-64.307 12.185-126.558-30.235-138.77-94.562-12.035-63.404 31.063-126.742 94.477-138.76 63.659-12.066 126.706 31.023 138.768 94.559 9.84 51.834-16.173 104.555-63.256 128.21z" fill="#ffb700"/><path d="m346.863 104.115c-5.914-31.151-23.6-58.143-49.797-76.003-25.577-17.437-56.278-24.129-86.696-18.959 16.535 2.844 32.415 9.223 46.696 18.959 26.198 17.861 43.883 44.853 49.797 76.003 9.84 51.834-16.173 104.555-63.256 128.21-9.83 4.939-20.334 8.489-31.219 10.552-.705.134-1.41.252-2.114.373 13.584 2.34 27.797 2.34 42.114-.373 10.885-2.063 21.389-5.614 31.219-10.552 47.082-23.655 73.095-76.376 63.256-128.21z" fill="#f5b000"/><ellipse cx="230.24" cy="126.216" fill="#ffe563" rx="86.566" ry="86.644" transform="matrix(.932 -.363 .363 .932 -30.12 92.249)"/></g></g><g><g fill="#cce7f0"><path d="m225.267 349.398s-19.015-75.548-64.131-87.498c-45.116-11.949-100.006 46.004-88.241 72.636 10.059 22.77 66.798-19.777 66.798-19.777s-20.319 32-3.541 43.201c15.803 10.55 48.703-20.829 48.703-20.829z"/><path d="m359.741 394.338s60.616-48.936 103.852-31.36c43.236 17.577 52.254 96.888 26.841 111.095-21.728 12.147-41.486-55.964-41.486-55.964s-3.003 37.786-23.144 36.65c-18.971-1.07-26.395-45.925-26.395-45.925z"/></g><g><path d="m283.643 504.412c-10.994-.397-21.911-2.335-32.447-5.76-62.243-20.24-96.426-87.367-76.2-149.642 16.298-50.177 64.457-83.895 117.113-81.995 10.995.397 21.912 2.336 32.449 5.762 30.16 9.805 54.695 30.778 69.086 59.053 14.381 28.258 16.908 60.429 7.114 90.585-16.298 50.18-64.458 83.897-117.115 81.997z" fill="#ffb700"/><path d="m393.644 331.831c-14.391-28.275-38.926-49.248-69.086-59.053-10.537-3.426-21.454-5.365-32.449-5.762-8.224-.297-16.339.276-24.24 1.644 5.637.97 11.215 2.339 16.689 4.119 30.16 9.805 54.695 30.778 69.086 59.053 14.381 28.258 16.908 60.429 7.114 90.585-13.753 42.342-50.192 72.963-92.876 80.353 5.214.896 10.478 1.452 15.761 1.643 52.657 1.901 100.817-31.816 117.115-81.996 9.795-30.157 7.267-62.328-7.114-90.586z" fill="#f5b000"/><ellipse cx="287.877" cy="385.714" fill="#ffe563" rx="86.644" ry="86.566" transform="matrix(.13 -.992 .992 .13 -131.882 621.193)"/></g></g></g><g><path d="m12.578 190.679c19.841 15.183 40.373-16.139 48.719-30.019 3.25 11.1 9.817 20.599 21.912 21.653 9.643.851 18.632-5.074 26.844-17.623 16.735 52.372 65.809 87.778 120.19 87.774 71.137 0 129.433-61.439 126.013-132.438 8.649 6.299 20.713 12.247 31.349 7.171 10.703-5.108 13.735-17 12.929-27.963 12.722 10.104 42.909 32.184 56.152 11.03 7.633-12.19 4.681-31.352-7.896-51.258-15.683-24.822-45.355-48.261-76.281-44.673-16.621 1.93-32.714 11.344-47.933 27.991-29.289-32.831-74.657-48.33-117.877-40.137-42.542 8.06-78.491 38.256-94.09 78.61-20.141-10.308-38.556-13.505-54.834-9.474-30.226 7.485-49.793 39.839-55.775 68.585-4.798 23.052-.843 42.031 10.578 50.771zm361.66-161.445c24.338-2.822 49.124 17.608 61.871 37.784 9 14.244 12.16 28.425 7.864 35.285-7.343 11.723-47.113-25.92-51.62-30.436-5.74-5.751-15.463.951-12.154 8.363 2.634 5.899 10.514 28.862.945 33.429-3.893 1.853-13.522-1.413-28.084-16.423-3.665-15.586-10.14-30.095-19.056-42.95 13.22-15.05 26.736-23.485 40.234-25.052zm-193.998-2.424c35.53-18.005 79.571-15.387 112.601 7.499 89.924 61.154 45.382 202.182-62.591 203.155-52.355-.003-99.145-37.249-109.263-90.547-9.218-48.56 15.148-97.949 59.253-120.107zm-163.555 116.155c4.863-23.366 20.924-51.195 44.694-57.081 13.227-3.276 28.885-.091 46.597 9.424-3.828 15.046-4.917 30.894-2.904 46.79-8.414 19.227-16.314 25.644-20.559 25.272-10.562-.921-11.234-25.189-10.836-31.629.521-8.115-10.956-10.984-14.315-3.578-2.738 6.039-26.725 54.978-37.669 46.604-6.429-4.92-8.441-19.308-5.008-35.802z"/><path d="m230.254 220.358c5.786 0 11.653-.538 17.542-1.653 49.896-8.393 85.331-60.508 74.868-110.006-9.681-50.997-59.021-84.63-109.978-74.974-11.707 2.219-22.709 6.544-32.701 12.858-8.198 5.179-.184 17.863 8.013 12.68 8.39-5.301 17.635-8.935 27.48-10.8 68.692-13.177 119.69 64.711 80.13 122.324-11.885 17.464-29.856 29.247-50.606 33.179-66.782 12.865-117.848-60.971-82.344-118.879 5.036-8.287-7.783-16.077-12.818-7.791-12.105 19.918-16.375 43.512-12.023 66.435 8.562 45.107 48.145 76.628 92.437 76.627z"/><path d="m199.896 104.993c.007 8.644 4.25 16.213 11.07 19.753 5.709 2.963 13.233 4.973 25.968 6.938 8.936 1.379 10.037 8.229 10.096 11.108.118 5.763-3.426 12.686-11.486 14.269-7.741 1.521-10.232 1.593-16.958-1.193-3.826-1.582-8.214.23-9.8 4.058-1.585 3.826.231 8.214 4.058 9.8 5.726 2.373 11.913 3.763 18.126 3.199.173 4.989 3.789 11.169 9.547 10.075 6.493-1.232 6.894-8.682 5.058-13.57 24.373-12.005 20.957-48.652-6.352-52.569-7.214-1.113-24.318-1.494-24.327-11.881-.008-9.97 12.799-12.606 20.179-9.133 0 0 6.438 4.62 10.938-1.88 4.867-7.031-2.988-10.839-2.988-10.839-2.944-1.841-8.193-3.816-14.573-3.9-.235-4.984-3.41-10.764-9.459-9.612-6.245 1.185-6.895 8.113-5.182 12.911-8.482 4.081-13.923 13.079-13.915 22.466z"/><path d="m466.418 356.029c-15.49-6.295-34.134-5.771-55.484 1.504-2.302-9.978-5.841-19.743-10.605-29.103-15.301-30.062-41.386-52.359-73.451-62.785-11.204-3.642-22.811-5.702-34.498-6.124-31.965-1.163-62.366 10.049-85.802 29.803-12.703-18.721-27.312-30.379-43.521-34.673-30.104-7.974-62.814 10.988-81.882 33.313-11.07 12.961-31.754 52.477-2.894 60.019 12.352 3.232 30.561-4.945 44.906-13.308-2.488 11.296-1.297 22.782 8.801 29.524 9.75 6.508 22.644 2.335 32.023-2.614-12.05 61.692 23.634 124.288 84.868 144.199 24.393 7.928 51.05 8.221 75.58.717 3.961-1.212 6.189-5.405 4.978-9.366-1.212-3.96-5.403-6.189-9.366-4.978-21.587 6.605-45.092 6.338-66.554-.639-58.311-18.96-90.334-81.851-71.386-140.192 15.269-47.008 60.413-78.599 109.709-76.815 10.295.371 20.523 2.188 30.4 5.399 28.255 9.186 51.239 28.833 64.721 55.322 13.474 26.476 15.841 56.615 6.666 84.866-7.283 22.421-21.337 41.661-40.643 55.642-3.355 2.429-4.105 7.118-1.676 10.473 2.431 3.356 7.119 4.107 10.473 1.676 17.09-12.375 30.533-28.408 39.553-46.95 6.345 13.608 14.398 20.763 24.049 21.308 12.146.675 19.979-7.777 24.782-18.3 5.864 13.948 16.543 39.082 34.991 39.082 23.615 0 27.699-34.434 26.664-51.148-1.815-29.307-16.556-64.125-45.402-75.852zm-326.102-4.305c-8.817-5.887 2.263-27.488 5.708-32.943 4.358-6.865-4.323-14.893-10.83-10.022-15.862 11.883-42.823 27.406-53.122 24.712-12.829-3.353 8.169-33.025 10.507-35.764 15.5-18.148 42.965-34.827 66.635-28.556 13.17 3.488 25.369 13.81 36.324 30.67-10.593 11.354-19.169 24.728-25.048 39.635-16.578 12.798-26.591 14.658-30.174 12.268zm346.459 115.801c-12.086 6.769-28.846-45.388-30.625-51.509-2.269-7.806-14.034-6.606-14.679 1.498-.475 5.975-4.602 29.766-14.865 29.766-10.518 0-14.403-21.164-17.134-27.816 4.304-15.462 5.613-31.336 3.971-46.931 18.839-6.839 34.746-7.722 47.326-2.607 22.685 9.222 34.604 39.06 36.078 62.881 1.042 16.816-3.006 30.768-10.072 34.718z"/><path d="m377.336 414.799c16.035-49.369-11.05-102.583-60.375-118.622-47.788-16.632-103.913 12.02-118.543 60.453-16.035 49.367 11.049 102.581 60.375 118.62 48.241 16.466 103.479-11.678 118.543-60.451zm-53.578 41.43c-18.817 9.597-40.24 11.288-60.326 4.756-66.563-21.481-73.826-114.291-11.436-145.786 18.855-9.621 40.318-11.269 60.326-4.756 66.563 21.481 73.828 114.291 11.436 145.786z"/><path d="m308.901 343.662 1.148-3.533c1.28-3.939-.876-8.17-4.816-9.449-3.934-1.277-8.17.876-9.449 4.816l-1.31 4.032c-18.239-1.384-32.91 20.208-22.789 35.629 3.581 5.342 9.21 10.723 19.432 18.571 12.587 9.822-1.219 26.046-13.421 21.581-7.52-2.39-9.74-3.525-14.296-9.2-2.592-3.231-7.312-3.748-10.543-1.154-3.23 2.592-3.748 7.312-1.155 10.543 4.878 6.078 8.899 9.138 14.356 11.517l-1.292 3.976c-1.28 3.939.876 8.171 4.815 9.45 3.638 1.182 8.257-1.14 9.45-4.815l1.514-4.66c11.123.623 22.228-5.836 27.379-15.7 6.141-11.761 3.058-25.197-7.673-33.435-6.149-4.723-12.872-10.2-16.105-15.024-3.546-5.293 3.642-12.351 8.7-12.351 5.365 0 11.064 2.914 13.873 6.955 0 0 3.411 7.668 10.461 4.389 7.167-3.333 2.627-11.717 2.627-11.717-1.697-3.028-5.354-7.28-10.906-10.421z"/></g></g></svg>