<?xml version="1.0" encoding="utf-8"?>
<!-- Generator: Adobe Illustrator 23.0.2, SVG Export Plug-In . SVG Version: 6.00 Build 0)  -->
<svg version="1.1" id="Layer_1" xmlns="http://www.w3.org/2000/svg" xmlns:xlink="http://www.w3.org/1999/xlink" x="0px" y="0px"
	 viewBox="0 0 500 500" style="enable-background:new 0 0 500 500;" xml:space="preserve">
<path d="M250,201.7c26.6,0,48.2,21.6,48.2,48.2c-0.1,26.6-21.6,48.1-48.2,48.1c-26.5,0-48.1-21.5-48.2-48.1
	C201.7,223.5,223.4,201.8,250,201.7z M376.5,218.4c-2.8-5.1-10.2-15.2-14.3-15.9c-33.9-6-62.9,24.8-55.2,58
	c9,38.7,51.9,40.5,56.9,35.9C384.3,277.8,389.7,243.1,376.5,218.4z M436.4,201.9c-11.4-0.7-29.4,5-40.1,21.6
	c-22.1,33.9,5.4,76.4,40.1,74.3C436.4,265.9,436.4,233.9,436.4,201.9z M472.9,292.5c8.2,4.4,24.5,7.4,19,4
	c-25.3-15.7-32.1-70.6,3.1-94.6C447.9,200.1,427,267.6,472.9,292.5z M136.1,296.5c5,4.6,47.9,2.8,56.9-35.9
	c7.7-33.3-21.4-64-55.2-58c-4.1,0.7-11.5,10.8-14.3,15.9C110.3,243.1,115.7,277.8,136.1,296.5z M63.6,297.9
	c34.8,2,62.2-40.4,40.1-74.3c-10.8-16.5-28.8-22.3-40.1-21.6C63.6,233.9,63.6,265.9,63.6,297.9z M5,201.9
	c35.2,24.1,28.4,79,3.1,94.6c-5.5,3.4,10.8,0.4,19-4C73,267.6,52.1,200.1,5,201.9z"/>
</svg>
